<?xml version="1.0" encoding="UTF-8"?>
<svg id="Layer_1" xmlns="http://www.w3.org/2000/svg" version="1.1" viewBox="0 0 430.5 91.2">
  <!-- Generator: Adobe Illustrator 30.0.0, SVG Export Plug-In . SVG Version: 2.1.1 Build 123)  -->
  <defs>
    <style>
      .st0 {
        fill: #80eaff;
      }
    </style>
  </defs>
  <path class="st0" d="M77.9,25.4c-6.4-1.6-8.4-3.3-10.2-8.9C64.3,5.7,57.4,0,47.7,0s-16.6,5.7-20,16.5c-1.8,5.6-3.8,7.3-10.2,8.9C6.6,28.1-.1,35.6-.1,45.6s6.7,17.5,17.6,20.2c6.4,1.6,8.4,3.3,10.2,8.9,3.4,10.8,10.3,16.5,20,16.5s16.6-5.7,20-16.5c1.8-5.6,3.8-7.3,10.2-8.9,10.9-2.7,17.6-10.2,17.6-20.2s-6.7-17.5-17.6-20.2ZM63.4,61c-6.6,0-12.4-4.8-13.8-10.7h-3.6c-1.5,5.8-7.3,10.7-13.9,10.7s-14.3-6.5-14.3-14.4,6.4-14.3,14.3-14.3,12.4,4.8,13.9,10.6h3.6c1.5-5.9,7.3-10.6,13.8-10.6s14.4,6.4,14.4,14.3-6.5,14.4-14.4,14.4Z"/>
  <rect class="st0" x="57.7" y="40.9" width="11.5" height="11.5"/>
  <rect class="st0" x="26.4" y="40.9" width="11.5" height="11.5"/>
  <polygon class="st0" points="163 10.6 145.7 10.6 129.3 33 112.7 10.6 94.7 10.6 120.4 45 93.5 80.6 110.8 80.6 128.8 56.2 146.9 80.6 165 80.6 137.7 44.2 163 10.6"/>
  <path class="st0" d="M178.8,30.7l16.9-20.1h-17.4l-9,10.6c-2.9,3.5-4.3,7-4.3,10.8s1.4,7.2,4.3,10.8l13.7,17.2-16.1,20.6h17.8l7.9-10c3-3.8,4.4-7.4,4.4-11.3s-1.4-7.5-4.4-11.3l-13.8-17.3Z"/>
  <path class="st0" d="M239.6,9c-20.5,0-36.6,16.1-36.6,36.6s16.1,36.6,36.6,36.6,36.6-16.1,36.6-36.6-16.1-36.6-36.6-36.6ZM239.6,68.2c-12.3,0-21.6-9.7-21.6-22.6s9.3-22.6,21.6-22.6,21.6,9.7,21.6,22.6-9.3,22.6-21.6,22.6Z"/>
  <polygon class="st0" points="273.1 10.6 310.7 80.6 328.3 80.6 290.7 10.6 273.1 10.6"/>
  <path class="st0" d="M394.3,10.6h-10.5l-28.6,55.2-29.7-55.2h-17.6l37.6,70h85.1l-36.3-70ZM369.8,67.6l18.9-37.6,18.9,37.6h-37.7Z"/>
</svg>